<svg preserveAspectRatio="none" overflow="visible" style="display: block;" width="13" height="51" viewBox="0 0 13 51" fill="none" xmlns="http://www.w3.org/2000/svg">
<path id="Vector" fill-rule="evenodd" clip-rule="evenodd" d="M0 5.88462C0 4.32392 0.684819 2.82714 1.90381 1.72356C3.12279 0.619985 4.77609 0 6.5 0C8.22391 0 9.87721 0.619985 11.0962 1.72356C12.3152 2.82714 13 4.32392 13 5.88462C13 7.44531 12.3152 8.94209 11.0962 10.0457C9.87721 11.1492 8.22391 11.7692 6.5 11.7692C4.77609 11.7692 3.12279 11.1492 1.90381 10.0457C0.684819 8.94209 0 7.44531 0 5.88462ZM0 25.5C0 23.9393 0.684819 22.4425 1.90381 21.3389C3.12279 20.2354 4.77609 19.6154 6.5 19.6154C8.22391 19.6154 9.87721 20.2354 11.0962 21.3389C12.3152 22.4425 13 23.9393 13 25.5C13 27.0607 12.3152 28.5575 11.0962 29.6611C9.87721 30.7646 8.22391 31.3846 6.5 31.3846C4.77609 31.3846 3.12279 30.7646 1.90381 29.6611C0.684819 28.5575 0 27.0607 0 25.5ZM0 45.1154C0 43.5547 0.684819 42.0579 1.90381 40.9543C3.12279 39.8508 4.77609 39.2308 6.5 39.2308C8.22391 39.2308 9.87721 39.8508 11.0962 40.9543C12.3152 42.0579 13 43.5547 13 45.1154C13 46.6761 12.3152 48.1729 11.0962 49.2764C9.87721 50.38 8.22391 51 6.5 51C4.77609 51 3.12279 50.38 1.90381 49.2764C0.684819 48.1729 0 46.6761 0 45.1154Z" fill="#5E7188"/>
</svg>
